Coordinates
version=1
nRows=5
nColumns=40
inDegrees=yes

Units are S.I. units (second, meters, Newtons, ...)
Angles are in degrees.

endheader
time	pelvis_tilt	pelvis_list	pelvis_rotation	pelvis_tx	pelvis_ty	pelvis_tz	hip_flexion_r	hip_adduction_r	hip_rotation_r	knee_angle_r	knee_angle_r_beta	ankle_angle_r	subtalar_angle_r	mtp_angle_r	hip_flexion_l	hip_adduction_l	hip_rotation_l	knee_angle_l	knee_angle_l_beta	ankle_angle_l	subtalar_angle_l	mtp_angle_l	lumbar_extension	lumbar_bending	lumbar_rotation	arm_flex_r	arm_add_r	arm_rot_r	elbow_flex_r	pro_sup_r	wrist_flex_r	wrist_dev_r	arm_flex_l	arm_add_l	arm_rot_l	elbow_flex_l	pro_sup_l	wrist_flex_l	wrist_dev_l
     27.72250000	     -1.67090471	     -6.02324289	      3.30510973	      0.87687363	      0.93345140	      0.46667179	      5.49688154	      4.77219655	    -17.00551668	     11.93842843	     11.93842843	      9.83033263	     -5.54736553	     -5.62522241	     33.85814034	    -12.26067970	      0.88478501	     54.12372559	     54.12372559	      8.41439768	    -19.10914531	     17.08861233	    -12.71385985	      6.40441071	      3.32045531	     33.22920591	    -15.21986986	      5.03879162	     75.82487971	     44.35966451	      0.00000000	      0.00000000	      1.89850332	    -10.37501164	     -7.37806856	     30.74242726	     47.43621441	      0.00000000	      0.00000000
     27.73500000	     -1.82660665	     -5.80579846	      3.66216177	      0.87677723	      0.93341673	      0.46661860	      5.13426010	      4.60844989	    -17.19060276	     11.61228378	     11.61228378	     10.00251595	     -5.53375153	     -5.62154272	     34.11371640	    -11.50767434	      0.96973112	     50.46393664	     50.46393664	      8.77191282	    -18.98286706	     17.13239683	    -12.74124081	      6.11125255	      3.05591020	     34.38149720	    -14.85190710	      4.92061922	     77.32024830	     44.32555025	      0.00000000	      0.00000000	      1.18384448	    -10.19954644	     -7.38384074	     29.94845869	     47.41907900	      0.00000000	      0.00000000
     27.74750000	     -1.98155920	     -5.64217714	      4.01619201	      0.87682191	      0.93324495	      0.46640794	      4.78667833	      4.47876130	    -17.45449708	     11.33660730	     11.33660730	     10.20472640	     -5.44128090	     -5.66720448	     34.25956742	    -10.73957036	      1.23636199	     46.64780997	     46.64780997	      8.96934093	    -18.71894649	     17.02462825	    -12.77447866	      5.88700656	      2.86252983	     35.37986246	    -14.58326152	      4.87721972	     78.96828605	     44.28432604	      0.00000000	      0.00000000	      0.55233578	     -9.98730673	     -7.40685700	     29.12926686	     47.40574096	      0.00000000	      0.00000000
     27.76000000	     -2.07607855	     -5.56992784	      4.36043850	      0.87711008	      0.93295855	      0.46602742	      4.38245154	      4.39598118	    -18.01508040	     11.12919799	     11.12919799	     10.54312230	     -4.81126647	     -5.72084985	     34.11873876	    -10.09602489	      1.53066416	     42.50839583	     42.50839583	      7.87451921	    -18.41202432	     13.43486803	    -12.92515405	      5.83817589	      3.72389577	     35.06855653	    -15.46571955	      4.30568134	     83.26983982	     44.25012833	      0.00000000	      0.00000000	      1.28861228	     -9.44998506	     -8.08305005	     26.48302591	     47.45929690	      0.00000000	      0.00000000
     27.77250000	     -2.26437538	     -5.40431764	      4.65165042	      0.87745421	      0.93249963	      0.46551458	      4.09561986	      4.23817036	    -18.15962564	     10.94832325	     10.94832325	     10.79024438	     -4.84948338	     -5.79436270	     34.12306955	     -9.28941444	      2.04979310	     38.70978690	     38.70978690	      8.15924630	    -17.53600558	     13.57519182	    -12.85990639	      5.61830876	      3.68420283	     36.02457576	    -15.29913496	      4.24809416	     84.16393653	     44.23488695	      0.00000000	      0.00000000	      0.66556449	     -9.25067293	     -8.11632870	     26.11595138	     47.44673634	      0.00000000	      0.00000000
